<?xml version="1.0" standalone="no"?>
<!DOCTYPE svg PUBLIC "-//W3C//DTD SVG 20010904//EN"
 "http://www.w3.org/TR/2001/REC-SVG-20010904/DTD/svg10.dtd">
<svg version="1.0" xmlns="http://www.w3.org/2000/svg"
 width="192.000000pt" height="192.000000pt" viewBox="0 0 192.000000 192.000000"
 preserveAspectRatio="xMidYMid meet">
<metadata>
Created by potrace 1.14, written by Peter Selinger 2001-2017
</metadata>
<g transform="translate(0.000000,192.000000) scale(0.100000,-0.100000)"
fill="#000000" stroke="none">
<path d="M0 960 l0 -960 960 0 960 0 0 960 0 960 -960 0 -960 0 0 -960z m1452
552 c-43 -59 -235 -323 -426 -587 -192 -264 -366 -497 -387 -518 -41 -40 -83
-48 -132 -26 -13 6 -118 111 -234 233 l-211 222 60 62 60 62 164 -135 164
-135 450 495 451 495 59 -30 60 -30 -78 -108z m403 -222 l0 -25 -143 -3 c-120
-2 -143 0 -148 13 -4 8 -4 22 0 30 5 13 28 15 148 13 l143 -3 0 -25z m0 -300
l0 -25 -248 -3 c-214 -2 -248 0 -253 13 -4 8 -4 22 0 30 5 13 39 15 253 13
l248 -3 0 -25z m0 -300 l0 -25 -353 -3 c-307 -2 -353 0 -358 13 -4 8 -4 22 0
30 5 13 51 15 358 13 l353 -3 0 -25z m0 -300 l0 -25 -458 -3 c-400 -2 -458 0
-463 13 -4 8 -4 22 0 30 5 13 63 15 463 13 l458 -3 0 -25z"/>
</g>
</svg>
